<?xml version="1.0" encoding="UTF-8"?><svg id="Layer_2" xmlns="http://www.w3.org/2000/svg" viewBox="0 0 21.53 21.53"><defs><style>.cls-1{fill:#85d8f9;stroke-width:0px;}</style></defs><g id="Layer_4"><path class="cls-1" d="M13,10.77L21.07,2.69c.62-.62.62-1.61,0-2.23-.62-.62-1.61-.62-2.23,0l-8.08,8.08L2.69.46C2.07-.15,1.08-.15.46.46-.15,1.08-.15,2.07.46,2.69l8.08,8.08L.46,18.84c-.62.62-.62,1.61,0,2.23.62.62,1.61.62,2.23,0l8.08-8.08,8.08,8.08c.62.62,1.61.62,2.23,0,.62-.62.62-1.61,0-2.23l-8.08-8.08Z"/></g></svg>