<?xml version="1.0" encoding="UTF-8"?><svg id="Layer_2" xmlns="http://www.w3.org/2000/svg" viewBox="0 0 452.12 292.06"><defs><style>.cls-1{font-size:55.79px;}.cls-2{fill:none;stroke:#ff2751;stroke-miterlimit:10;stroke-width:3px;}.cls-3{fill:#ffe3eb;font-family:Roboto-BlackItalic, Roboto;font-style:italic;font-weight:800;}.cls-4{font-size:86.72px;}.cls-5{fill:#85d8f9;}.cls-5,.cls-6,.cls-7{stroke-width:0px;}.cls-6{fill:#a50027;}.cls-7{fill:#001528;}</style></defs><g id="Layer_4"><rect class="cls-5" width="452.12" height="292.06"/><path class="cls-7" d="M332.27,102.65c-4.18-11.29-10.51-21.22-18.2-29.64-7.2-7.88-15.7-14.57-24.94-19.9-8.83-5.1-18.5-9.06-28.62-11.71-9.88-2.59-20.4-4-31.29-4s-21.42,1.41-31.29,4c-10.12,2.66-19.79,6.62-28.62,11.71-9.24,5.33-17.74,12.02-24.94,19.9-7.69,8.42-14.02,18.35-18.2,29.64-4.54,12.28-6.12,25.04-4.73,37.65,1.5,13.71,6.49,27.11,14.81,39.23,8.93,13.01,21.5,24.26,37.12,32.45,10.63,5.57,22.42,9.57,35.01,11.69l20.84,33.5,20.84-33.5c12.59-2.12,24.38-6.12,35.01-11.69,15.63-8.18,28.19-19.43,37.12-32.45,8.32-12.13,13.3-25.53,14.81-39.23,1.38-12.61-.19-25.37-4.73-37.65Z"/><path class="cls-2" d="M324.7,100.13c-4.18-11.29-10.51-21.22-18.2-29.64-7.2-7.88-15.7-14.57-24.94-19.9-8.83-5.1-18.5-9.06-28.62-11.71-9.88-2.59-20.4-4-31.29-4s-21.42,1.41-31.29,4c-10.12,2.66-19.79,6.62-28.62,11.71-9.24,5.33-17.74,12.02-24.94,19.9-7.69,8.42-14.02,18.35-18.2,29.64-4.54,12.28-6.12,25.04-4.73,37.65,1.5,13.71,6.49,27.11,14.81,39.23,8.93,13.01,21.5,24.26,37.12,32.45,10.63,5.57,22.42,9.57,35.01,11.69l20.84,36.02,20.84-36.02c12.59-2.12,24.38-6.12,35.01-11.69,15.63-8.18,28.19-19.43,37.12-32.45,8.32-12.13,13.3-25.53,14.81-39.23,1.38-12.61-.19-25.37-4.73-37.65Z"/><path class="cls-6" d="M221.66,150.6c-5.49,0-10.79.37-15.77,1.06-5.1.7-9.97,1.75-14.42,3.09-4.66,1.41-8.94,3.17-12.57,5.25-3.87,2.22-7.07,4.84-9.17,7.82-2.29,3.24-3.08,6.61-2.39,9.94.76,3.62,3.27,7.15,7.46,10.36,4.5,3.43,10.83,6.4,18.71,8.56,8.22,2.26,17.82,3.55,28.15,3.55s19.92-1.29,28.15-3.55c7.87-2.16,14.21-5.13,18.71-8.56,4.19-3.2,6.7-6.74,7.46-10.36.7-3.33-.1-6.7-2.39-9.94-2.1-2.98-5.3-5.6-9.17-7.82-3.63-2.08-7.91-3.84-12.57-5.25-4.45-1.35-9.32-2.39-14.42-3.09-4.98-.68-10.28-1.06-15.77-1.06"/><text class="cls-3" transform="translate(135.24 121.82) rotate(-2.04)"><tspan class="cls-4"><tspan x="0" y="0">LIVE</tspan></tspan><tspan class="cls-1"><tspan x="0" y="46.49">MUSIC</tspan></tspan></text></g></svg>