<?xml version="1.0" encoding="UTF-8"?><svg id="Layer_2" xmlns="http://www.w3.org/2000/svg" viewBox="0 0 131.33 131.29"><defs><style>.cls-1{font-size:32.57px;}.cls-2{fill:#ffe3eb;font-family:Roboto-BlackItalic, Roboto;font-style:italic;font-weight:800;}.cls-3{fill:none;stroke:#ff2751;stroke-miterlimit:10;}.cls-4{font-size:50.63px;}.cls-5{fill:#a50027;}.cls-5,.cls-6{stroke-width:0px;}.cls-6{fill:#001528;}</style></defs><g id="Layer_4"><path class="cls-6" d="M128.29,40.07c-2.44-6.59-6.14-12.39-10.62-17.3-4.2-4.6-9.17-8.5-14.56-11.62-5.15-2.98-10.8-5.29-16.71-6.84-5.77-1.51-11.91-2.34-18.27-2.34s-12.5.82-18.27,2.34c-5.91,1.55-11.55,3.86-16.71,6.84-5.39,3.11-10.36,7.02-14.56,11.62-4.49,4.91-8.19,10.71-10.62,17.3-2.65,7.17-3.57,14.62-2.76,21.98.88,8,3.79,15.83,8.64,22.91,5.21,7.6,12.55,14.17,21.67,18.94,6.21,3.25,13.09,5.59,20.44,6.83l12.17,19.56,12.17-19.56c7.35-1.24,14.23-3.58,20.44-6.83,9.12-4.78,16.46-11.35,21.67-18.94,4.86-7.08,7.77-14.9,8.64-22.91.81-7.36-.11-14.81-2.76-21.98Z"/><path class="cls-3" d="M123.87,38.6c-2.44-6.59-6.14-12.39-10.62-17.3-4.2-4.6-9.17-8.5-14.56-11.62-5.15-2.98-10.8-5.29-16.71-6.84-5.77-1.51-11.91-2.34-18.27-2.34s-12.5.82-18.27,2.34c-5.91,1.55-11.55,3.86-16.71,6.84-5.39,3.11-10.36,7.02-14.56,11.62-4.49,4.91-8.19,10.71-10.62,17.3C.89,45.77-.02,53.22.78,60.58c.88,8,3.79,15.83,8.64,22.91,5.21,7.6,12.55,14.17,21.67,18.94,6.21,3.25,13.09,5.59,20.44,6.83l12.17,21.03,12.17-21.03c7.35-1.24,14.23-3.58,20.44-6.83,9.12-4.78,16.46-11.35,21.67-18.94,4.86-7.08,7.77-14.9,8.64-22.91.81-7.36-.11-14.81-2.76-21.98Z"/><path class="cls-5" d="M63.71,68.06c-3.21,0-6.3.22-9.21.62-2.98.41-5.82,1.02-8.42,1.8-2.72.82-5.22,1.85-7.34,3.07-2.26,1.3-4.13,2.83-5.35,4.57-1.34,1.89-1.8,3.86-1.39,5.8.44,2.11,1.91,4.18,4.36,6.05,2.63,2.01,6.32,3.74,10.92,5,4.8,1.32,10.4,2.07,16.43,2.07s11.63-.75,16.43-2.07c4.6-1.26,8.3-2.99,10.92-5,2.45-1.87,3.91-3.93,4.36-6.05.41-1.94-.06-3.91-1.39-5.8-1.23-1.74-3.09-3.27-5.35-4.57-2.12-1.21-4.62-2.24-7.34-3.07-2.6-.79-5.44-1.4-8.42-1.8-2.91-.4-6-.62-9.21-.62"/><text class="cls-2" transform="translate(13.29 51.28) rotate(-2.04)"><tspan class="cls-4"><tspan x="0" y="0">LIVE</tspan></tspan><tspan class="cls-1"><tspan x="0" y="27.14">MUSIC</tspan></tspan></text></g></svg>