<?xml version="1.0" encoding="UTF-8"?><svg id="Layer_2" xmlns="http://www.w3.org/2000/svg" xmlns:xlink="http://www.w3.org/1999/xlink" viewBox="0 0 117.84 116.89"><defs><style>.cls-1{fill:#e8eaee;font-family:HelveticaNeue-BoldItalic, 'Helvetica Neue';font-style:italic;font-weight:700;}.cls-2{fill:url(#linear-gradient);}.cls-2,.cls-3,.cls-4{stroke-width:0px;}.cls-5{font-size:26.06px;}.cls-6{font-size:40.5px;}.cls-3{fill:#7f187f;}.cls-4{fill:#ff50ff;}</style><linearGradient id="linear-gradient" x1="3.98" y1="59.11" x2="117.84" y2="59.11" gradientUnits="userSpaceOnUse"><stop offset="0" stop-color="#332333"/><stop offset="1" stop-color="#1a1a1a"/></linearGradient></defs><g id="Layer_2-2"><path class="cls-2" d="M115.09,35.64c-2.2-5.94-5.53-11.16-9.57-15.59-3.79-4.15-8.26-7.66-13.11-10.46-4.64-2.68-9.73-4.76-15.05-6.16-5.19-1.36-10.73-2.1-16.45-2.1s-11.26.74-16.45,2.1c-5.32,1.4-10.41,3.48-15.05,6.16-4.86,2.8-9.33,6.32-13.11,10.46-4.04,4.43-7.37,9.65-9.57,15.59-2.39,6.46-3.22,13.17-2.49,19.8.79,7.21,3.41,14.25,7.79,20.63,4.7,6.84,11.3,12.76,19.52,17.06,5.59,2.93,11.79,5.03,18.41,6.15l10.96,17.62,10.96-17.62c6.62-1.12,12.82-3.22,18.41-6.15,8.22-4.3,14.82-10.22,19.52-17.06,4.37-6.38,6.99-13.42,7.79-20.63.73-6.63-.1-13.34-2.49-19.8Z"/><path class="cls-4" d="M56.93,1c5.52,0,10.97.7,16.2,2.07,5.24,1.38,10.22,3.41,14.8,6.06,4.9,2.83,9.24,6.29,12.87,10.27,4.16,4.55,7.31,9.68,9.37,15.26,2.33,6.3,3.15,12.81,2.43,19.34-.79,7.17-3.35,13.95-7.62,20.17-4.7,6.85-11.32,12.64-19.16,16.74-5.59,2.93-11.69,4.96-18.11,6.05l-.46.08-.24.41-10.09,17.45-10.09-17.45-.24-.41-.46-.08c-6.42-1.08-12.52-3.12-18.11-6.05-7.83-4.1-14.46-9.89-19.16-16.74-4.27-6.22-6.83-13.01-7.62-20.17-.72-6.53.1-13.04,2.43-19.34,2.06-5.57,5.21-10.71,9.37-15.26,3.64-3.99,7.97-7.44,12.87-10.27,4.58-2.64,9.56-4.68,14.8-6.06,5.23-1.37,10.68-2.07,16.2-2.07M56.93,0c-5.73,0-11.26.74-16.45,2.1-5.32,1.4-10.41,3.48-15.05,6.16-4.86,2.8-9.33,6.32-13.11,10.46-4.04,4.43-7.37,9.65-9.57,15.59C.36,40.77-.47,47.48.26,54.11c.79,7.21,3.41,14.25,7.79,20.63,4.7,6.84,11.3,12.76,19.52,17.06,5.59,2.93,11.79,5.03,18.41,6.15l10.96,18.94,10.96-18.94c6.62-1.12,12.82-3.22,18.41-6.15,8.22-4.3,14.82-10.22,19.52-17.06,4.37-6.38,6.99-13.42,7.79-20.63.73-6.63-.1-13.34-2.49-19.8-2.2-5.94-5.53-11.16-9.57-15.59-3.79-4.15-8.26-7.66-13.11-10.46-4.64-2.68-9.73-4.76-15.05-6.16-5.19-1.36-10.73-2.1-16.45-2.1h0Z"/><path class="cls-3" d="M56.93,60.85c-2.89,0-5.68.2-8.29.56-2.68.37-5.24.92-7.58,1.63-2.45.74-4.7,1.67-6.61,2.76-2.04,1.17-3.72,2.55-4.82,4.11-1.2,1.71-1.62,3.48-1.25,5.23.4,1.9,1.72,3.76,3.92,5.45,2.37,1.81,5.7,3.37,9.84,4.5,4.32,1.19,9.37,1.86,14.8,1.86s10.48-.68,14.8-1.86c4.14-1.14,7.47-2.7,9.84-4.5,2.2-1.68,3.53-3.54,3.92-5.45.37-1.75-.05-3.52-1.25-5.23-1.11-1.57-2.79-2.95-4.82-4.11-1.91-1.09-4.16-2.02-6.61-2.76-2.34-.71-4.9-1.26-7.58-1.63-2.62-.36-5.4-.56-8.29-.56"/><text class="cls-1" transform="translate(14.83 45.2) rotate(-2.04)"><tspan class="cls-6"><tspan x="0" y="0">LIVE</tspan></tspan><tspan class="cls-5"><tspan x="0" y="21.71">MUSIC</tspan></tspan></text></g></svg>