<?xml version="1.0" encoding="UTF-8"?><svg id="Layer_2" xmlns="http://www.w3.org/2000/svg" viewBox="0 0 385.64 385.64"><defs><style>.cls-1{fill:#fff;stroke-width:0px;}</style></defs><g id="Layer_4"><path class="cls-1" d="M100.57,183.39v-108.54s52.42,25.31,24.17,81.18c-.94,1.86,7.19,3.87,8.24,2.06C190.64,59.24,114.39,65.98,100.57,0h-28.13v150.91c-5.36-1.71-14.85-2.67-21.02-2.67-68.57,0-68.57,70.29,0,70.29,25.14,0,49.14-15.73,49.14-35.14Z"/><path class="cls-1" d="M331.95,0h-28.13v150.91c-5.36-1.71-14.85-2.66-21.02-2.66-68.56,0-68.56,70.28,0,70.28,25.14,0,49.14-15.74,49.14-35.14v-108.53s52.41,25.32,24.16,81.18c-.94,1.86,7.19,3.87,8.25,2.06,57.67-98.85-18.59-92.11-32.41-158.1Z"/><path class="cls-1" d="M156,167.11v150.91c-5.36-1.71-14.85-2.66-21.02-2.66-68.56,0-68.56,70.28,0,70.28,25.14,0,49.14-15.73,49.14-35.14v-108.53s52.41,25.31,24.16,81.19c-.93,1.85,7.19,3.86,8.25,2.06,57.67-98.85-18.58-92.11-32.4-158.1h-28.13Z"/></g></svg>