<?xml version="1.0" encoding="UTF-8"?><svg id="Layer_2" xmlns="http://www.w3.org/2000/svg" viewBox="0 0 29.21 44.11"><defs><style>.cls-1{fill:#ffe3eb;stroke-width:0px;}</style></defs><g id="Layer_4"><path class="cls-1" d="M29.21,13.87C29.21,6.21,22.67,0,14.61,0S0,6.21,0,13.87c0,6.11,4.16,11.28,9.93,13.13l3.66,16.32c.23,1.05,1.81,1.05,2.04,0l3.66-16.32c5.77-1.85,9.93-7.03,9.93-13.13ZM6.82,13.84c0-4.09,3.49-7.4,7.79-7.4s7.79,3.31,7.79,7.4-3.49,7.4-7.79,7.4-7.79-3.31-7.79-7.4ZM12.56,13.84c0-1.08.92-1.95,2.05-1.95s2.05.87,2.05,1.95-.92,1.95-2.05,1.95-2.05-.87-2.05-1.95Z"/></g></svg>
