<?xml version="1.0" encoding="UTF-8"?><svg id="Layer_2" xmlns="http://www.w3.org/2000/svg" viewBox="0 0 85.89 89.96"><defs><style>.cls-1{opacity:.7;}.cls-2{fill:#0b040c;stroke-width:0px;}</style></defs><g id="Layer_2-2"><path class="cls-1" d="M42.95,3c3.97,0,7.89.5,11.65,1.49,3.76.99,7.33,2.45,10.61,4.34,3.5,2.02,6.59,4.48,9.18,7.32,2.94,3.22,5.17,6.84,6.62,10.77,1.64,4.43,2.21,8.99,1.71,13.57-.55,5.03-2.36,9.81-5.36,14.19-3.34,4.87-8.06,8.98-13.64,11.91-4.01,2.1-8.38,3.56-12.99,4.34l-1.48.25-.69,1.34-5.6,10.89-5.6-10.89-.69-1.34-1.48-.25c-4.61-.78-8.98-2.24-12.99-4.34-5.59-2.93-10.3-7.04-13.64-11.91-3.01-4.38-4.81-9.16-5.36-14.19-.5-4.58.07-9.14,1.71-13.57,1.45-3.93,3.68-7.56,6.62-10.77,2.59-2.84,5.68-5.3,9.18-7.32,3.28-1.89,6.85-3.36,10.61-4.34,3.76-.99,7.68-1.49,11.65-1.49M42.95,0c-4.32,0-8.49.56-12.41,1.59-4.01,1.05-7.85,2.62-11.35,4.65-3.66,2.12-7.04,4.77-9.89,7.89-3.05,3.34-5.56,7.28-7.22,11.76C.27,30.76-.36,35.82.19,40.82c.6,5.44,2.57,10.75,5.87,15.56,3.54,5.16,8.53,9.62,14.73,12.87,4.22,2.21,8.89,3.8,13.89,4.64l8.27,16.07,8.27-16.07c4.99-.84,9.67-2.43,13.89-4.64,6.2-3.25,11.18-7.71,14.73-12.87,3.3-4.81,5.28-10.13,5.87-15.56.55-5-.08-10.06-1.88-14.94-1.66-4.48-4.17-8.42-7.22-11.76-2.86-3.13-6.23-5.78-9.89-7.89-3.5-2.02-7.34-3.59-11.35-4.65-3.92-1.03-8.09-1.59-12.41-1.59h0Z"/><path class="cls-1" d="M42.95,23.91c-2.7,0-5.3.28-7.75.8-2.51.53-4.9,1.33-7.09,2.35-2.29,1.07-4.39,2.41-6.18,4-1.9,1.69-3.47,3.69-4.51,5.95-1.13,2.47-1.52,5.03-1.17,7.56.37,2.75,1.61,5.45,3.67,7.88,2.21,2.61,5.32,4.87,9.2,6.52,4.04,1.72,8.76,2.7,13.83,2.7s9.79-.98,13.83-2.7,6.98-3.9,9.2-6.52c2.06-2.44,3.3-5.13,3.67-7.88.34-2.53-.05-5.1-1.17-7.56-1.03-2.27-2.6-4.26-4.51-5.95-1.78-1.58-3.89-2.93-6.18-4-2.19-1.02-4.58-1.82-7.09-2.35-2.45-.52-5.05-.8-7.75-.8"/></g></svg>
