<?xml version="1.0" encoding="UTF-8"?><svg id="Layer_2" xmlns="http://www.w3.org/2000/svg" viewBox="0 0 45.18 36.52"><defs><style>.cls-1{opacity:.7;}.cls-2{fill:#0b040c;stroke-width:0px;}</style></defs><g id="Layer_2-2"><g id="_54aI5X.tif" class="cls-1"><path class="cls-2" d="M0,5.83c4.33.03,8.65.05,12.98.08.89,0,1.79,0,2.83.26-1.52,1.29-3.02,2.59-4.57,3.84-.21.17-.65.08-.99.08-1.92,0-3.83,0-5.83,0v22.09h31.25c0-1.92.03-3.82-.02-5.73-.02-.74.24-1.24.75-1.76,1.07-1.11,2.05-2.31,3.07-3.47.17.1.34.21.51.31v14.99H0V5.83Z"/><path class="cls-2" d="M31.57,6.14V0c4.65,4.16,9.08,8.12,13.61,12.17-4.51,4.17-8.94,8.27-13.57,12.56v-6.19c-5.13-1.08-10.06-1.05-14.85.9-4.91,1.99-7.92,5.75-9.68,10.67,0-6.7,1.6-12.82,6.49-17.67,4.92-4.88,11.19-6.15,18-6.29Z"/></g></g></svg>