<?xml version="1.0" encoding="UTF-8"?><svg id="Layer_2" xmlns="http://www.w3.org/2000/svg" viewBox="0 0 32.17 35.22"><defs><style>.cls-1{fill:#85d8f9;stroke-width:0px;}</style></defs><g id="Layer_4"><path class="cls-1" d="M31.02,32.32c-2.1,2.99-6.36,3.8-9.51,1.81-2.45-1.55-3.51-4.35-2.86-6.92l-7.39-5.17c-1.19.94-2.72,1.51-4.39,1.51-3.79,0-6.86-2.92-6.86-6.51s3.07-6.51,6.86-6.51c1.9,0,3.63.74,4.87,1.93l7.03-4.01c-.2-.61-.31-1.25-.31-1.93,0-3.6,3.07-6.51,6.86-6.51s6.86,2.92,6.86,6.51-3.07,6.51-6.86,6.51c-1.9,0-3.63-.74-4.87-1.93l-7.03,4.01c.2.61.31,1.25.31,1.92,0,.89-.19,1.73-.53,2.5l6.97,4.88c2.23-2.42,6.06-2.96,8.95-1.13,3.15,1.99,4.01,6.04,1.91,9.03Z"/></g></svg>