<?xml version="1.0" encoding="UTF-8"?><svg id="Layer_2" xmlns="http://www.w3.org/2000/svg" viewBox="0 0 40.29 32.71"><defs><style>.cls-1{fill:#0b040c;;stroke-width:0px;}</style></defs><g id="Layer_2-2"><g id="BK3ziF"><path class="cls-1" d="M0,27.67c.4-.78.8-1.57,1.19-2.35,2.07-4.13,4.14-8.27,6.2-12.4.05-.1.1-.19.17-.32.35.35.67.69,1,1.02,1.29,1.29,2.58,2.58,3.87,3.88.11.12.19.13.33.04,2.38-1.59,4.76-3.18,7.14-4.77.17-.12.29-.13.47,0,2.38,1.6,4.76,3.18,7.14,4.77.06.04.12.07.21.13.18-.21.36-.41.57-.65.42.82.81,1.59,1.2,2.36,0,.03,0,.05-.01.05-.35.23-.3.54-.23.9.56,2.77,1.11,5.55,1.66,8.32.05.27.11.55.18.86,1.94-.97,3.87-1.93,5.8-2.9-.62-1.24-1.23-2.46-1.84-3.68-.13-.26-.26-.51-.38-.78-.03-.07-.04-.17,0-.23.44-.87.88-1.74,1.32-2.61,0-.01.02-.02.05-.04.04.07.08.14.12.21,1.34,2.67,2.67,5.34,4.01,8.01.03.07.08.13.12.2v.05c-3.29,1.64-6.57,3.28-9.86,4.93-.16.08-.27.08-.43,0-3.22-1.62-6.44-3.23-9.66-4.84-.14-.07-.24-.07-.38,0-3.21,1.61-6.43,3.22-9.64,4.83-.17.09-.3.09-.47,0C6.56,30.99,3.28,29.36,0,27.72c0-.02,0-.03,0-.05ZM11.85,29.03c.07-.03.11-.05.15-.07,2.24-1.12,4.47-2.24,6.71-3.35.14-.07.16-.15.16-.29,0-2.87,0-5.75,0-8.62,0-.06,0-.12,0-.2-.06.03-.1.05-.14.08-1.64,1.09-3.28,2.19-4.92,3.29-.08.06-.16.17-.18.27-.31,1.53-.62,3.05-.93,4.58-.29,1.43-.57,2.86-.86,4.32ZM28.42,29.03s0-.07,0-.09c-.59-2.92-1.17-5.84-1.75-8.76-.03-.16-.09-.26-.22-.35-1.62-1.07-3.23-2.15-4.85-3.23-.05-.04-.11-.07-.18-.1,0,.05-.01.08-.01.1,0,2.92,0,5.84,0,8.75,0,.15.06.2.18.26,1.58.78,3.15,1.57,4.72,2.36.7.35,1.4.7,2.12,1.06ZM9.17,29.48c.02-.08.04-.13.05-.19.62-3.12,1.25-6.24,1.87-9.36.03-.14,0-.23-.1-.33-.87-.86-1.74-1.73-2.6-2.6-.05-.05-.1-.09-.16-.14-1.62,3.25-3.23,6.47-4.85,9.71,1.93.97,3.85,1.92,5.79,2.89Z"/><path class="cls-1" d="M32.73,20.15c-.48-.94-.95-1.85-1.41-2.77-1.42-2.78-2.84-5.55-4.24-8.34-1.15-2.28-.7-5.19,1.07-7.04,2.83-2.95,7.51-2.6,9.8.78,1.34,1.97,1.5,4.13.44,6.27-1.81,3.65-3.69,7.27-5.54,10.9-.03.06-.07.12-.11.2ZM32.73,2.54c-2.07,0-3.77,1.69-3.77,3.76,0,2.08,1.68,3.78,3.76,3.78,2.09,0,3.78-1.68,3.79-3.77,0-2.09-1.68-3.78-3.78-3.78Z"/></g></g></svg>
