<?xml version="1.0" encoding="UTF-8"?><svg id="Layer_2" xmlns="http://www.w3.org/2000/svg" viewBox="0 0 297.87 297.35"><defs><style>.cls-1{opacity:.7;}.cls-2{fill:#0b040c;stroke-width:0px;}</style></defs><g id="Layer_2-2"><g id="xGuYlZ"><path class="cls-1" d="M0,191c8.34-9.16,16.32-18.68,25.08-27.42,38.49-38.45,77.22-76.67,115.84-114.99,12.4-12.3,24.7-24.69,37.08-37.01,4.94-4.91,9.86-9.88,17-11.57h3c5.97,1.29,10.32,4.93,14.32,9.35,4.02,4.44,8.49,8.47,12.69,12.74,4.34,4.42,4.49,6.28,1.13,11.25-10.5,15.55-4.76,35.4,12.67,42.08,8.78,3.37,17.64,2.57,25.7-3.08,5.35-3.75,7.1-3.54,11.65.91,5.35,5.24,10.71,10.49,15.99,15.8,7.66,7.69,7.62,16.53,0,24.11-10.4,10.33-20.82,20.63-31.18,31-48.55,48.58-97.07,97.19-145.62,145.77-9.91,9.92-18.46,9.87-28.35-.03-4.94-4.95-9.8-9.99-14.85-14.82-3.47-3.32-4.28-6.64-.93-10.41,8.85-9.96,7.65-27.28-1.66-36.49-10.18-10.06-24.52-11.26-36.79-2.51-3.91,2.79-7.14,2.93-10.59-.56-5.75-5.79-11.73-11.35-17.4-17.22C2.83,205.92,1.56,203.32,0,201c0-3.33,0-6.67,0-10ZM152.62,55.3c-.33-.39-.65-.78-.98-1.17-12.28,12.43-24.48,24.94-36.86,37.28-33.24,33.13-66.55,66.18-99.84,99.26-3.96,3.93-4.11,6.1-.26,10.09,3.7,3.84,7.62,7.46,11.26,11.35,1.77,1.89,3.17,2.23,5.56.92,3.18-1.74,6.57-3.45,10.08-4.15,16.23-3.26,29.89,1.77,39.68,14.92,9.64,12.95,11.02,27.24,2.93,41.71-1.33,2.38-1.28,3.7.64,5.51,3.76,3.54,7.29,7.31,10.95,10.95,4.36,4.34,6.47,4.3,10.8-.03,15.53-15.53,31.07-31.05,46.6-46.58,28.71-28.7,57.42-57.4,86.12-86.11,2.02-2.02,4.31-3.52,3.02-7.44-1.27-3.87,2.98-7.74,6.99-6.51,2.58.79,3.88.2,5.55-1.48,9.59-9.7,19.21-19.38,28.96-28.93,2.47-2.42,2.46-4.58.32-6.89-4.74-5.11-9.58-10.12-13.5-14.25-7.22,2.05-12.99,4.67-18.95,5.21-30.91,2.78-52.93-30.74-38.14-57.08.62-1.11.65-3.46-.1-4.28-4.27-4.66-8.74-9.16-13.38-13.46-2.59-2.41-5.53-1.99-8.02.47-9.58,9.49-19.14,19-28.63,28.57-.79.8-1.72,2.49-1.39,3.19,1.56,3.25,1.13,6.3-1.74,7.91-2.1,1.17-5.09.75-7.68,1.04Z"/><path class="cls-1" d="M104.5,122.65c6.72,3.06,13.8,5.53,20.06,9.34,7.75,4.72,13.64,4.62,20-2.52,5.23-5.86,11.82-10.51,18.62-16.41-1.38,10.47-2.24,19.89-3.99,29.14-1.09,5.76.24,9.06,5.6,11.8,8.09,4.16,15.73,9.2,24.61,14.49-9.75,2-18.33,4.31-27.07,5.36-6.62.8-9.18,3.98-10.21,10.12-1.42,8.51-3.53,16.91-5.61,26.57-2.59-4.44-4.71-8.04-6.8-11.66-1.25-2.16-2.51-4.31-3.71-6.5-7.55-13.8-7.53-13.73-23.47-11.86-6.03.71-12.11.97-19.69,1.54,6.26-6.92,11.11-13.28,16.97-18.5,6.31-5.62,7.44-10.87,3.28-18.36-3.81-6.86-6.32-14.45-9.4-21.72l.81-.85ZM147.16,143.64c-6.15,7.85-12.63,8.73-20.88,1.67,1.79,5.37,4.33,9.15,3.77,12.38-.56,3.19-4.27,5.83-6.79,8.95,4.36,0,8.87-1.28,11.71.35,2.93,1.69,4.23,6.22,6.25,9.5.44.15.87.31,1.31.46-1.53-11.01,4.78-13.9,14.35-14.51-10.42-2.73-12.84-8.99-9.71-18.8Z"/><path class="cls-1" d="M211.95,99.05c.06,4.62-3.62,7.66-7.45,5.25-4.21-2.65-8.1-6.34-10.98-10.4-2.44-3.44.71-8.2,4.61-8.27,4.43-.07,13.76,8.98,13.82,13.42Z"/><path class="cls-1" d="M237.11,125.81c-.55.66-1.55,2.96-3.11,3.45-1.91.6-4.83.41-6.35-.73-3.28-2.44-6.37-5.42-8.68-8.77-1.09-1.59-1.01-5,0-6.77,1.27-2.25,3.97-3.09,6.93-1.6,4.08,2.04,11.23,9.99,11.22,14.42Z"/><path class="cls-1" d="M186.97,75.76c-.54.66-1.56,3.01-3.14,3.5-1.93.59-4.85.3-6.43-.85-3.18-2.34-6.17-5.23-8.37-8.47-1.14-1.68-1.37-5.25-.31-6.79,1.01-1.46,4.37-2.18,6.47-1.83,4.37.74,11.79,9.48,11.78,14.45Z"/></g></g></svg>
